<svg width="639" height="631" viewBox="0 0 639 631" fill="none" xmlns="http://www.w3.org/2000/svg"><circle cx="337" cy="329" r="263" stroke="#263238" stroke-width="2" stroke-linecap="round" stroke-dasharray="0.1 8"/><g filter="url(#filter0_d)" fill="#fff"><path d="M368.653 313.174v28.487h-66.47v-28.487h66.47zm9.495-9.496h-85.46v47.478h85.46v-47.478zm-22.156 18.992h-41.148v9.495h41.148v-9.495z"/><path d="M335.417 254.617c-40.198 0-72.8 32.602-72.8 72.8s32.602 72.8 72.8 72.8 72.8-32.602 72.8-72.8-32.602-72.8-72.8-72.8zm23.739 138.257v-44.883h-3.165v45.959a69.17 69.17 0 01-20.574 3.102 69.18 69.18 0 01-20.574-3.102v-45.959h-3.165v44.883c-26.271-9.559-45.199-34.501-45.864-63.874h30.038v-3.165h-30.038c.665-29.374 19.593-54.316 45.864-63.875v44.883h3.165v-45.959a69.212 69.212 0 0120.574-3.102 69.202 69.202 0 0120.574 3.102v45.959h3.165V261.96c26.272 9.559 45.2 34.501 45.864 63.875h-30.038V329h30.038c-.664 29.373-19.592 54.315-45.864 63.874z" stroke="#fff" stroke-width="6"/></g><g filter="url(#filter1_d)"><path d="M517.323 303.397s0-.556 0 0v-8.905l-7.828-1.113c-.559 0-.559 0-1.119-.556l-21.806-3.34-17.333-2.783c-2.796-8.348-6.151-16.14-10.065-23.376l22.925-32.281s0-.557.559-.557l5.032-6.679-23.484-23.376-23.484-23.376-6.709 5.009s-.559 0-.559.557l-32.431 22.819c-7.268-3.896-15.655-7.235-23.483-10.018l-1.678-8.905-5.032-30.055c0-.557 0-1.113-.559-1.67L369.151 147h-67.097l-1.118 7.235c0 .557-.56 1.114-.56 1.67l-6.15 38.96c-8.387 2.783-16.215 5.566-23.484 10.019l-32.43-22.82s-.559 0-.559-.556l-6.71-5.01-6.151 6.123-34.666 34.507-6.151 6.123 5.033 6.679s0 .556.559 1.113l22.924 32.281c-3.913 7.236-7.268 15.028-9.505 23.376l-39.14 6.679c-.559 0-1.118.557-1.677.557L155 295.049v67.902l7.828 1.113c.559 0 1.118.557 1.118.557l39.14 6.679c2.796 8.348 6.151 16.14 10.065 23.376l-22.925 32.281c0 .557-.559.557-.559 1.113l-4.473 6.679 6.15 6.123 34.667 34.507 6.15 6.122 6.71-5.009s.559 0 .559-.556L259 462.021l12.86-8.905c7.269 3.896 15.097 7.236 23.484 10.019l6.71 38.96c0 .556.559 1.113.559 1.669l1.118 7.236h67.097l1.118-7.236c0-.556.559-1.113.559-1.669l6.71-38.96c8.387-2.783 16.215-6.123 23.484-10.019l4.473 3.34 27.398 20.036c.559 0 .559.557 1.118.557l6.71 4.452 6.15-6.122 34.667-34.507 6.151-6.123-5.033-6.679s0-.556-.559-.556l-17.892-25.046-5.033-6.679c3.914-7.792 7.269-15.584 10.065-23.933l39.14-6.122c.559 0 1.118-.557 1.677-.557l7.269-1.113v-60.667h-1.677zm-182.839 89.052c-35.785 0-64.86-28.941-64.86-64.562 0-35.621 29.075-64.563 64.86-64.563s64.86 28.942 64.86 64.563-29.075 64.562-64.86 64.562z" fill="#fff"/></g><rect x="297" y="27" width="80" height="80" rx="40" fill="#F57C00"/><path d="M356.889 61.519c.878-5.886-3.573-9.05-9.657-11.16l1.976-7.975-4.829-1.21-1.92 7.765a194.59 194.59 0 00-3.859-.916l1.934-7.816L335.721 39l-1.975 7.962c-1.35-.31-3.073-.754-3.073-.754l-6.642-1.672-1.281 5.184s3.573.825 3.498.884c.667.08 1.275.421 1.695.949.419.528.616 1.2.548 1.873l-2.234 9.088c.171.043.339.097.503.161l-.51-.126-3.149 12.726a1.776 1.776 0 01-.867 1.037 1.746 1.746 0 01-1.341.115c.048.07-3.501-.885-3.501-.885L315 81.092l6.268 1.574c1.166.294 2.309.601 3.435.885l-1.995 8.063 4.813 1.21 1.975-7.98c1.317.36 2.59.693 3.839 1.004l-1.975 7.942 4.815 1.21 1.993-8.05c8.215 1.568 14.391.935 16.99-6.551 2.096-6.027-.103-9.51-4.425-11.77a7.673 7.673 0 004.278-2.5 7.769 7.769 0 001.878-4.61zM345.885 77.07c-1.488 6.027-11.56 2.77-14.826 1.951l2.634-10.684c3.277.812 13.748 2.448 12.192 8.733zm1.49-15.638c-1.359 5.483-9.74 2.698-12.46 2.015l2.399-9.691c2.717.683 11.474 1.957 10.061 7.676z" fill="#fff"/><rect x="559" y="289" width="80" height="80" rx="40" fill="#F57C00"/><path d="M610.92 311.694c-2.982-5.15-8.435-4.85-14.508-2.708l-3.426-7.468-4.53 2.064 3.338 7.269a192.01 192.01 0 00-3.588 1.689l-3.359-7.317-4.517 2.055 3.418 7.458a149.208 149.208 0 01-2.873 1.325l-6.235 2.832 2.229 4.853s3.308-1.582 3.287-1.489a2.554 2.554 0 011.916-.315 2.595 2.595 0 011.597 1.124l3.917 8.499c.16-.073.325-.136.493-.187l-.476.218 5.468 11.915a1.758 1.758 0 01-1.008 2.277c.082.025-3.289 1.49-3.289 1.49l1.588 5.83 5.883-2.675c1.095-.497 2.181-.969 3.238-1.449l3.465 7.549 4.518-2.054-3.429-7.471a172.757 172.757 0 003.628-1.608l3.405 7.442 4.52-2.055-3.459-7.538c7.401-3.894 11.836-8.238 9.202-15.712-2.117-6.019-6.008-7.372-10.796-6.446a7.663 7.663 0 001.787-4.622 7.776 7.776 0 00-1.404-4.775zm1.088 19.02c2.592 5.64-7.314 9.37-10.378 10.766l-4.6-9.996c3.068-1.408 12.277-6.655 14.978-.77zm-8.582-13.158c2.355 5.134-5.935 8.181-8.488 9.342l-4.164-9.074c2.55-1.159 10.192-5.621 12.652-.268z" fill="#fff"/><rect x="482" y="104" width="80" height="80" rx="40" fill="#F57C00"/><path d="M519.433 155.745l2.855-10.273 6.753-2.359 1.68-6.037-.057-.149-6.648 2.322 4.79-17.249H515.22l-6.262 22.51-5.23 1.827-1.728 6.224 5.226-1.827L503.535 164h36.149l2.316-8.255h-22.567z" fill="#fff"/><rect x="482" y="474" width="80" height="80" rx="40" fill="#F57C00"/><path d="M549.089 503.075a5.972 5.972 0 00-.797-2.64 3.778 3.778 0 00-2.018-1.81 5.965 5.965 0 00-2.839-.622h-36.844l-2.648 7.903h33.39l-5.271 16.189h-33.374l-2.632 7.903h37.01a10.243 10.243 0 003.23-.622 21.95 21.95 0 003.229-2.018 15.85 15.85 0 002.64-2.64 18.026 18.026 0 001.627-3.038l4.89-15.375a5.717 5.717 0 00.415-3.222l-.008-.008z" fill="#fff"/><path d="M517.11 510.331h-19.642l-2.64 7.314h19.842l2.44-7.314z" fill="#fff"/><rect x="297" y="551" width="80" height="80" rx="40" fill="#F57C00"/><path d="M336.998 603.328l-18.816-11.116 18.816-31.211 18.801 31.211-18.801 11.116z" fill="#fff"/><path d="M336.998 621.999l-18.816-26.5 18.816 11.109 18.823-11.109-18.823 26.5z" fill="#fff"/><rect x="112" y="474" width="80" height="80" rx="40" fill="#F57C00"/><path d="M156.472 507.775v-5.855h12.331V493h-33.577v8.92h12.332v5.85c-10.022.5-17.558 2.655-17.558 5.237 0 2.582 7.539 4.737 17.558 5.24V537h8.917v-18.755c10.004-.501 17.525-2.655 17.525-5.234s-7.521-4.733-17.525-5.234l-.003-.002zm.003 8.882v-.005c-.251.017-1.544.102-4.422.102-2.301 0-3.92-.071-4.49-.103v.007c-8.855-.425-15.464-2.1-15.464-4.103 0-2.003 6.61-3.675 15.464-4.101v6.537c.58.043 2.238.149 4.528.149 2.749 0 4.132-.124 4.386-.149v-6.537c8.837.427 15.431 2.103 15.431 4.099s-6.597 3.673-15.431 4.1" fill="#fff"/><g filter="url(#filter2_d)"><rect x="112" y="104" width="80" height="80" rx="40" fill="#fff"/><circle cx="151.408" cy="143.964" r="6.436" transform="rotate(15 151.408 143.964)" fill="#F57C00" stroke="#F57C00" stroke-width="1.515"/><path d="M122.902 142.108a8.835 8.835 0 015.688 9.852l-7.77-2.082 2.082-7.77zm12.743-16.477a8.835 8.835 0 01-9.852 5.688l2.082-7.77 7.77 2.082zm31.525 36.666a8.834 8.834 0 019.851-5.688l-2.082 7.77-7.769-2.082zm7.055-26.328l7.769 2.082-2.081 7.77a8.835 8.835 0 01-5.688-9.852z" fill="#F57C00" stroke="#F57C00" stroke-width="1.515"/><path stroke="#F57C00" stroke-width="3.029" d="M128.411 124.477l52.656 14.11-6.662 24.864-52.657-14.11z"/></g><g filter="url(#filter3_d)"><rect x="132" y="16" width="40" height="40" rx="20" fill="#fff"/><path d="M159.338 40.803c0 1.417-.525 2.625-1.575 3.622-1.033.98-2.538 1.575-4.515 1.785v2.94h-2.153v-2.914a14.71 14.71 0 01-3.675-.708c-1.155-.385-2.073-.875-2.756-1.47l1.181-2.652c.648.525 1.435.972 2.363 1.34.927.35 1.89.568 2.887.655v-5.25c-1.242-.297-2.283-.62-3.123-.97a5.592 5.592 0 01-2.074-1.576c-.56-.7-.84-1.619-.84-2.756 0-1.418.516-2.625 1.549-3.623 1.032-.997 2.528-1.592 4.488-1.785v-2.966h2.153v2.914c.98.052 1.934.219 2.861.499.945.28 1.768.647 2.468 1.102l-1.077 2.651a10.92 10.92 0 00-4.252-1.417v5.302c1.26.298 2.301.622 3.124.972.84.35 1.54.875 2.1 1.575.577.682.866 1.592.866 2.73zm-10.894-8.112c0 .578.228 1.042.683 1.392.455.35 1.111.647 1.968.892v-4.672c-.892.14-1.557.42-1.995.84-.437.42-.656.936-.656 1.548zm4.804 10.658c.927-.14 1.61-.411 2.047-.814.455-.402.683-.901.683-1.496s-.236-1.068-.709-1.418c-.472-.367-1.146-.673-2.021-.918v4.646z" fill="#F57C00"/></g><g filter="url(#filter4_d)"><rect x="78" y="30" width="40" height="40" rx="20" fill="#fff"/><path d="M99.488 56.02c1.942 0 3.578-.726 4.908-2.179l2.179 2.1c-.84.998-1.89 1.759-3.15 2.284-1.242.525-2.616.787-4.121.787-1.523 0-2.94-.28-4.253-.84a9.381 9.381 0 01-3.307-2.362 8.805 8.805 0 01-1.89-3.518H86.86v-1.837h2.652c-.018-.193-.027-.49-.027-.893 0-.402.01-.7.027-.892H86.86v-1.838h2.993a8.805 8.805 0 011.89-3.517 9.381 9.381 0 013.307-2.363c1.313-.56 2.73-.84 4.253-.84 1.505 0 2.879.263 4.121.788 1.26.525 2.31 1.286 3.15 2.284l-2.179 2.073c-1.33-1.435-2.966-2.152-4.908-2.152-1.4 0-2.634.332-3.702.997a6.026 6.026 0 00-2.336 2.73h7.534v1.838H92.95a10.57 10.57 0 00-.052.892c0 .21.017.508.052.893h8.033v1.837H93.45a6.026 6.026 0 002.336 2.73c1.068.665 2.302.998 3.702.998z" fill="#F57C00"/></g><g filter="url(#filter5_d)"><rect x="24" y="124" width="40" height="40" rx="20" fill="#fff"/><path d="M40.828 147.936v1.497h5.775v1.837h-5.775V154h-3.412v-2.73h-2.625v-1.837h2.625v-13.808h7.56c2.45 0 4.358.525 5.723 1.575 1.382 1.05 2.073 2.581 2.073 4.594 0 1.995-.691 3.517-2.073 4.567-1.365 1.05-3.273 1.575-5.723 1.575h-4.148zm8.505-6.116c0-1.068-.376-1.881-1.128-2.441-.753-.578-1.838-.866-3.255-.866h-4.122v6.667h4.122c1.4 0 2.476-.289 3.228-.866.77-.595 1.156-1.427 1.156-2.494z" fill="#F57C00"/></g><g filter="url(#filter6_d)"><rect x="38" y="70" width="40" height="40" rx="20" fill="#fff"/><path d="M60.59 91.81h4.357v1.837h-5.224v1.785h5.224v1.838h-5.224V100h-3.412v-2.73h-5.224v-1.837h5.224v-1.786h-5.224V91.81h4.331l-7.113-10.185h3.622l6.169 8.82 6.169-8.82h3.438L60.59 91.81z" fill="#F57C00"/></g><defs><filter id="filter0_d" x="235.617" y="235.617" width="199.6" height="199.6" filterUnits="userSpaceOnUse" color-interpolation-filters="sRGB"><feFlood flood-opacity="0" result="BackgroundImageFix"/><feColorMatrix in="SourceAlpha" values="0 0 0 0 0 0 0 0 0 0 0 0 0 0 0 0 0 0 127 0"/><feOffset dy="8"/><feGaussianBlur stdDeviation="12"/><feColorMatrix values="0 0 0 0 0.316667 0 0 0 0 0.160272 0 0 0 0 0 0 0 0 0.15 0"/><feBlend in2="BackgroundImageFix" result="effect1_dropShadow"/><feBlend in="SourceGraphic" in2="effect1_dropShadow" result="shape"/></filter><filter id="filter1_d" x="131" y="131" width="412" height="412" filterUnits="userSpaceOnUse" color-interpolation-filters="sRGB"><feFlood flood-opacity="0" result="BackgroundImageFix"/><feColorMatrix in="SourceAlpha" values="0 0 0 0 0 0 0 0 0 0 0 0 0 0 0 0 0 0 127 0"/><feOffset dy="8"/><feGaussianBlur stdDeviation="12"/><feColorMatrix values="0 0 0 0 0.316667 0 0 0 0 0.160272 0 0 0 0 0 0 0 0 0.15 0"/><feBlend in2="BackgroundImageFix" result="effect1_dropShadow"/><feBlend in="SourceGraphic" in2="effect1_dropShadow" result="shape"/></filter><filter id="filter2_d" x="64" y="72" width="176" height="176" filterUnits="userSpaceOnUse" color-interpolation-filters="sRGB"><feFlood flood-opacity="0" result="BackgroundImageFix"/><feColorMatrix in="SourceAlpha" values="0 0 0 0 0 0 0 0 0 0 0 0 0 0 0 0 0 0 127 0"/><feOffset dy="16"/><feGaussianBlur stdDeviation="24"/><feColorMatrix values="0 0 0 0 0.316667 0 0 0 0 0.160272 0 0 0 0 0 0 0 0 0.25 0"/><feBlend in2="BackgroundImageFix" result="effect1_dropShadow"/><feBlend in="SourceGraphic" in2="effect1_dropShadow" result="shape"/></filter><filter id="filter3_d" x="108" y="0" width="88" height="88" filterUnits="userSpaceOnUse" color-interpolation-filters="sRGB"><feFlood flood-opacity="0" result="BackgroundImageFix"/><feColorMatrix in="SourceAlpha" values="0 0 0 0 0 0 0 0 0 0 0 0 0 0 0 0 0 0 127 0"/><feOffset dy="8"/><feGaussianBlur stdDeviation="12"/><feColorMatrix values="0 0 0 0 0.316667 0 0 0 0 0.160272 0 0 0 0 0 0 0 0 0.15 0"/><feBlend in2="BackgroundImageFix" result="effect1_dropShadow"/><feBlend in="SourceGraphic" in2="effect1_dropShadow" result="shape"/></filter><filter id="filter4_d" x="54" y="14" width="88" height="88" filterUnits="userSpaceOnUse" color-interpolation-filters="sRGB"><feFlood flood-opacity="0" result="BackgroundImageFix"/><feColorMatrix in="SourceAlpha" values="0 0 0 0 0 0 0 0 0 0 0 0 0 0 0 0 0 0 127 0"/><feOffset dy="8"/><feGaussianBlur stdDeviation="12"/><feColorMatrix values="0 0 0 0 0.316667 0 0 0 0 0.160272 0 0 0 0 0 0 0 0 0.15 0"/><feBlend in2="BackgroundImageFix" result="effect1_dropShadow"/><feBlend in="SourceGraphic" in2="effect1_dropShadow" result="shape"/></filter><filter id="filter5_d" x="0" y="108" width="88" height="88" filterUnits="userSpaceOnUse" color-interpolation-filters="sRGB"><feFlood flood-opacity="0" result="BackgroundImageFix"/><feColorMatrix in="SourceAlpha" values="0 0 0 0 0 0 0 0 0 0 0 0 0 0 0 0 0 0 127 0"/><feOffset dy="8"/><feGaussianBlur stdDeviation="12"/><feColorMatrix values="0 0 0 0 0.316667 0 0 0 0 0.160272 0 0 0 0 0 0 0 0 0.15 0"/><feBlend in2="BackgroundImageFix" result="effect1_dropShadow"/><feBlend in="SourceGraphic" in2="effect1_dropShadow" result="shape"/></filter><filter id="filter6_d" x="14" y="54" width="88" height="88" filterUnits="userSpaceOnUse" color-interpolation-filters="sRGB"><feFlood flood-opacity="0" result="BackgroundImageFix"/><feColorMatrix in="SourceAlpha" values="0 0 0 0 0 0 0 0 0 0 0 0 0 0 0 0 0 0 127 0"/><feOffset dy="8"/><feGaussianBlur stdDeviation="12"/><feColorMatrix values="0 0 0 0 0.316667 0 0 0 0 0.160272 0 0 0 0 0 0 0 0 0.15 0"/><feBlend in2="BackgroundImageFix" result="effect1_dropShadow"/><feBlend in="SourceGraphic" in2="effect1_dropShadow" result="shape"/></filter></defs></svg>